<?xml version="1.0" encoding="UTF-8" standalone="no"?>
<!-- Created with Inkscape (http://www.inkscape.org/) -->

<svg
   width="341.02209"
   height="447.56247"
   viewBox="0 0 90.22876 118.41758"
   version="1.1"
   id="svg1"
   xml:space="preserve"
   sodipodi:docname="pricingPath.svg"
   xmlns:inkscape="http://www.inkscape.org/namespaces/inkscape"
   xmlns:sodipodi="http://sodipodi.sourceforge.net/DTD/sodipodi-0.dtd"
   xmlns="http://www.w3.org/2000/svg"
   xmlns:svg="http://www.w3.org/2000/svg"><sodipodi:namedview
     id="namedview1"
     pagecolor="#ffffff"
     bordercolor="#000000"
     borderopacity="0.25"
     inkscape:showpageshadow="2"
     inkscape:pageopacity="0.0"
     inkscape:pagecheckerboard="0"
     inkscape:deskcolor="#d1d1d1" /><defs
     id="defs1" /><path
     id="rect1"
     style="stroke-width:1.0246"
     d="M 7.7623093,5.3001627e-8 C 3.4620597,5.3001627e-8 -2.5301313e-7,3.4620501 -2.5301313e-7,7.7623203 V 110.65526 c 0,4.30027 3.46205995301313,7.76232 7.76230955301313,7.76232 H 29.266939 a 15.857759,15.857759 0 0 1 -0.0103,-0.14211 15.857759,15.857759 0 0 1 15.85795,-15.85743 15.857759,15.857759 0 0 1 15.85794,15.85743 15.857759,15.857759 0 0 1 -0.004,0.14211 h 21.49792 c 4.300254,0 7.762314,-3.46205 7.762314,-7.76232 V 7.7623203 C 90.228763,3.4620501 86.766703,5.3001628e-8 82.466449,5.3001628e-8 Z" /></svg>
